# xmcd CD database file
#
# Track frame offsets:
#	187
#	15712
#	30187
#	44587
#	58612
#	74212
#	88612
#	102862
#	117412
#	146362
#	159862
#	174187
#
# Disc length: 2532 seconds
#
# Revision: 2
# Processed by: cddbd v1.5PL3 Copyright (c) Steve Scherf et al.
# Submitted via: CDex 1.50
#
DISCID=9709e20c
DTITLE=Bessie Smith - The Collection
DYEAR=1989
DGENRE=Blues
TTITLE0=Downhearted Blues
TTITLE1=Weepin' Willow Blues
TTITLE2=St. Louis Blues
TTITLE3=Reckless Blues
TTITLE4=You've Been A Good Ole Wagon
TTITLE5=Young Woman's Blues
TTITLE6=Muddy Water (A Mississippi Moan)
TTITLE7=Mean Old Redbug Blues
TTITLE8=Empty Bed Blues
TTITLE9=Nobody Knows When You're Down And Out
TTITLE10=Black Mountain Blues
TTITLE11=Gimme A Pigfoot
EXTD=YEAR: 1989
EXTT0=
EXTT1=
EXTT2=
EXTT3=
EXTT4=
EXTT5=
EXTT6=
EXTT7=
EXTT8=
EXTT9=
EXTT10=
EXTT11=
PLAYORDER=
